<svg width="212" height="41" viewBox="0 0 212 41" fill="none" xmlns="http://www.w3.org/2000/svg">
    <g>
      <path d="M39.96 0.503662H30.9805V39.7198H39.96V0.503662Z" fill="black"></path>
      <path d="M51.3516 0.503662H42.3721V39.7198H56.8502V31.9326H51.3516V0.503662Z" fill="black"></path>
      <path
        d="M102.984 2.60463C101.133 0.867097 98.5775 0 95.3237 0C92.1068 0 89.608 0.850422 87.8308 2.54793C86.0536 4.24878 85.165 6.81672 85.165 10.2518V29.9715C85.165 33.4099 86.0536 35.9845 87.8308 37.7021C89.608 39.4196 92.1034 40.28 95.3237 40.28C98.5775 40.28 101.133 39.4129 102.984 37.6754C104.834 35.9378 105.763 33.3699 105.763 29.9715V21.1772H96.7836V30.6452C96.7836 31.3189 96.6533 31.7925 96.3894 32.0726C96.1255 32.3527 95.8282 32.4928 95.4908 32.4928C95.1166 32.4928 94.7993 32.3527 94.5354 32.0726C94.2748 31.7925 94.1412 31.3155 94.1412 30.6452V9.63478C94.1412 8.92443 94.2715 8.43085 94.5354 8.15071C94.7959 7.87057 95.1166 7.7305 95.4908 7.7305C95.8282 7.7305 96.1255 7.87057 96.3894 8.15071C96.65 8.43085 96.7836 8.92777 96.7836 9.63478V19.1028H105.763V10.2518C105.763 6.89009 104.834 4.34216 102.984 2.60463Z"
        fill="black"></path>
      <path
        d="M110.7 0.447021L107.162 39.7199H116.142L116.589 30.8121H118.61L119.058 39.7199H128.037L124.673 0.447021H110.7ZM116.927 23.0249L117.321 15.9681H117.882L118.219 23.0249H116.927Z"
        fill="black"></path>
      <path d="M127.533 8.29086H132.978V39.7198H141.954V8.29086H147.343V0.503662H127.533V8.29086Z" fill="black"></path>
      <path d="M148.97 8.29086H154.415V39.7198H163.391V8.29086H168.779V0.503662H148.97V8.29086Z" fill="black"></path>
      <path
        d="M179.834 23.0248H185.222V15.2376H179.834V8.29086H185.333V0.503662H170.854V39.7198H185.389V31.9326H179.834V23.0248Z"
        fill="black"></path>
      <path
        d="M209.839 9.37815C209.251 9.37815 208.71 9.67163 208.316 10.2119L211.703 3.98547C211.9 3.64197 211.997 3.25178 211.997 2.85825C211.997 1.53426 210.965 0.50708 209.642 0.50708H187.45V39.7199L190.206 39.7466L207.955 13.7336L197.325 32.583C195.037 36.4916 195.474 39.7232 200.007 39.7232H211.997V11.4392C212 10.0652 211.262 9.37815 209.839 9.37815ZM198.481 10.7522C197.535 11.4659 196.142 10.0585 197.843 9.13803C199.543 8.21758 208.302 3.36183 208.302 3.36183C208.302 3.36183 199.426 10.0385 198.481 10.7522Z"
        fill="black"></path>
      <path
        d="M27.0955 0.55377C26.5543 0.55377 26.0532 0.737194 25.7759 2.00116L20.3976 24.8725C20.3976 24.8725 23.2638 6.13654 23.3206 3.05501C23.344 1.73102 22.2416 0.50708 20.6682 0.50708C19.2919 0.50708 18.5269 1.34416 18.0659 2.66482L9.81463 25.266L15.9479 1.63431C15.9479 1.04401 15.507 0.50708 14.7687 0.50708H3.6713H0V39.7199H3.6713C7.20564 39.7199 10.005 37.4654 11.0874 34.3772L21.0657 2.95496L14.4647 29.6682C14.2175 30.452 14.1206 31.2357 14.1206 32.0227C14.1206 33.6402 14.6618 35.161 15.7408 36.5817C17.3109 38.6894 19.4221 39.7199 22.0245 39.7199H28.1745L28.2246 1.73102C28.2246 1.04401 27.6834 0.55377 27.0955 0.55377Z"
        fill="black"></path>
      <path
        d="M74.6957 0.533691H58.6309V23.8119C58.6309 24.8524 59.927 25.3327 60.6051 24.5423L73.1757 7.15365L58.6309 32.0093V39.7498H74.6957C79.3926 39.7498 83.2008 35.9479 83.2008 31.2589V9.02457C83.2008 4.33558 79.3926 0.533691 74.6957 0.533691Z"
        fill="black"></path>
    </g>
  </svg>