<svg xmlns="http://www.w3.org/2000/svg" xmlns:xlink="http://www.w3.org/1999/xlink" version="1.1" id="Capa_1" x="0px" y="0px" viewBox="0 0 401.8 660.1" style="enable-background:new 0 0 401.8 660.1;" xml:space="preserve">
<style type="text/css">
	.st0{fill:#D12E24;}
</style>
<g>
	<path class="st0" d="M175.7,0c12.4,0,19.8,9.2,19.8,19.1l-103,397.7L231.1,36.4c7.7-22.2,20.6-36.3,43.7-36.3   c26.4,0,45,20.6,44.5,42.9c-1,51.8-49.1,367.2-49.1,367.2l90.3-384.9C365.2,4,373.8,0.1,382.8,0.1c9.9,0,18.9,9.1,18.9,20.6V0   H175.7z"/>
	<path class="st0" d="M297.6,660.1c-43.7,0-79.2-17.3-105.6-52.8c-18.1-23.9-27.2-49.5-27.2-76.7c0-13.2,1.6-26.4,5.8-39.6   L281.5,41.4L113.8,570.2C96.8,619,54.3,655.4,0,659.7v0.4h252.7H297.6z"/>
</g>
</svg>